<svg width="423" height="60" viewBox="0 0 423 60" fill="none" xmlns="http://www.w3.org/2000/svg">
<path fill-rule="evenodd" clip-rule="evenodd" d="M116.994 59.849L130.239 0H140.434L132.805 34.4724L148.962 21.3272H162.884L143.463 37.1082L147.699 45.4368C149.083 48.1592 151.877 49.8614 154.962 49.8614H159.401L157.238 59.849H154.74C147.954 59.849 141.807 56.1049 138.761 50.1156L135.455 43.6152L129.756 48.2458L127.188 59.849H116.994ZM11.6177 6.27618L11.7726 6.24676H22.0472L29.6793 43.1274L53.1485 6.24676H63.542L55.6754 41.8847C54.6816 46.387 57.599 50.0329 62.1949 50.0329H64.5879L62.4093 59.8268H60.0164C49.9046 59.8268 43.4872 51.8062 45.6736 41.9013L48.0238 31.2543L31.1341 57.7955L29.7505 59.97H22.3183L21.88 57.8537L16.297 30.8747L10.0112 59.9406L0 60L11.6177 6.27618ZM94.8138 46.2277L98.1533 31.2116H90.6722C86.6823 31.2116 84.2654 32.4726 82.7379 33.889C81.0804 35.4253 79.7667 37.8042 79.1518 40.8756C78.0653 46.3037 81.3587 50.0157 85.5086 50.0157H94.2517L92.2831 59.849H83.5394C73.1249 59.849 67.132 50.9737 69.1533 40.8756C70.0926 36.184 72.3462 31.2727 76.46 27.4591C80.7032 23.5257 86.2613 21.3783 92.6414 21.3783H100.34L100.341 21.3744L110.339 21.3733L104.813 46.2266C104.345 48.3301 105.707 50.0352 107.854 50.0352H113.159L110.981 59.8291H105.675C98.0061 59.8291 93.1435 53.7399 94.8138 46.2277ZM179.257 50.0285C176.642 50.0285 174.302 48.4639 173.281 45.8142H194.171L194.17 45.8148H197.044C200.999 45.8148 204.682 43.1934 204.76 39.2422C204.975 28.4326 197.304 20.73 186.522 20.73C180.103 20.73 174.522 22.9446 170.276 26.954C166.172 30.8286 163.919 35.8083 162.967 40.5637C160.932 50.7311 166.771 59.8624 177.288 59.8624H200.57L202.784 50.0285H179.257ZM184.553 30.5633C190.752 30.5633 194.811 32.6291 194.811 38.231H173.618C175.331 33.5704 179.154 30.5633 184.553 30.5633ZM346.473 45.8142C347.493 48.4639 349.833 50.0285 352.448 50.0285H375.975L373.761 59.8624H350.48C339.963 59.8624 334.123 50.7311 336.159 40.5637C337.111 35.8083 339.364 30.8286 343.467 26.954C347.714 22.9446 353.295 20.73 359.714 20.73C370.17 20.73 378.06 28.4315 377.926 39.2394C377.877 43.1906 374.191 45.8148 370.236 45.8148H367.362V45.8142H346.473ZM368.002 38.231C368.002 33.1497 363.944 30.5633 357.745 30.5633C352.346 30.5633 348.522 33.5704 346.81 38.231H368.002ZM412.567 39.2855L407.987 59.849H417.985L422.565 39.2883C424.774 29.3695 418.356 21.3278 408.229 21.3278H400.197V21.3272H390L381.434 59.849H391.631L398.019 31.1217H406.051C410.653 31.1217 413.571 34.7771 412.567 39.2855ZM228.358 21.3694H237.042L234.879 31.357H228.136C226.274 31.357 224.643 32.6763 224.249 34.5029L218.571 59.849H208.387L214.475 32.6042C215.885 26.081 221.707 21.3694 228.358 21.3694ZM283.72 6.11911L281.515 16.1067H305.606C316.372 16.1067 324.192 26 321.746 36.5254C319.924 44.3678 312.874 49.9841 304.852 49.9841H294.181L300.557 21.3694H290.36L283.089 53.9963L281.757 59.9717H287.858H304.63C317.383 59.9717 328.589 51.0442 331.486 38.5767C335.374 21.8451 322.942 6.11911 305.828 6.11911H283.72ZM269.835 21.3272H280.007L277.786 31.3132H267.614L269.835 21.3272ZM261.123 21.4344H254.903C246.585 21.4344 240.94 29.8857 244.131 37.5611L247.06 44.6059C248.124 47.164 246.242 49.9813 243.469 49.9813H230.54L228.54 59.9717H243.469C253.372 59.9717 260.092 49.9108 256.294 40.773L253.365 33.7286C252.909 32.6319 253.715 31.4247 254.903 31.4247H259.123L261.123 21.4344Z" fill="black"/>
</svg>
